<svg width="24" height="24" viewBox="0 0 24 24" fill="none" xmlns="http://www.w3.org/2000/svg">
<path d="M20.6802 14.4001L21.2802 10.2601L21.2402 10.2201C21.3734 9.30902 21.1052 8.38491 20.5048 7.68674C19.9045 6.98858 19.031 6.58491 18.1102 6.58012H7.68021L7.47021 5.89012C7.07028 4.56156 5.85746 3.64386 4.47021 3.62012H3.47021C3.056 3.62012 2.72021 3.9559 2.72021 4.37012C2.72021 4.78433 3.056 5.12012 3.47021 5.12012H4.47021C5.21319 5.1201 5.86794 5.60812 6.08021 6.32012L8.61021 14.8501C9.01845 16.1942 10.2555 17.1149 11.6602 17.1201H17.5302C19.1069 17.1133 20.4437 15.959 20.6802 14.4001Z" fill="black"/>
<path d="M11.4302 18.3801C10.8779 18.3801 10.4302 18.8278 10.4302 19.3801C10.4302 19.9324 10.8779 20.3801 11.4302 20.3801C11.9825 20.3801 12.4302 19.9324 12.4302 19.3801C12.4302 18.8278 11.9825 18.3801 11.4302 18.3801Z" fill="black"/>
<path d="M17.4302 18.3801C16.8779 18.3801 16.4302 18.8278 16.4302 19.3801C16.4302 19.9324 16.8779 20.3801 17.4302 20.3801C17.9825 20.3801 18.4302 19.9324 18.4302 19.3801C18.4302 18.8278 17.9825 18.3801 17.4302 18.3801Z" fill="black"/>
</svg>
