<svg width="24" height="24" viewBox="0 0 24 24" fill="none" xmlns="http://www.w3.org/2000/svg">
<path fill-rule="evenodd" clip-rule="evenodd" d="M3.47021 4.25H4.47021L4.52021 4.26C5.90637 4.28689 7.11755 5.20334 7.52022 6.53L7.72021 7.22H18.1502C19.0712 7.22419 19.9458 7.62503 20.5502 8.32C21.1529 9.01937 21.4196 9.94735 21.2802 10.86L20.6802 15C20.4804 16.5869 19.1395 17.7825 17.5402 17.8H11.6602C10.2555 17.7948 9.01845 16.8741 8.61021 15.53L6.08021 7C5.88648 6.26818 5.22722 5.75633 4.47021 5.75H3.47021C3.056 5.75 2.72021 5.41421 2.72021 5C2.72021 4.58579 3.056 4.25 3.47021 4.25ZM10.0502 15.05C10.2625 15.762 10.9172 16.25 11.6602 16.25H17.5402C18.3679 16.241 19.0688 15.6372 19.2002 14.82L19.8002 10.67C19.8819 10.1869 19.7487 9.69227 19.4354 9.31558C19.1222 8.93889 18.6601 8.71772 18.1702 8.71H8.17021L10.0502 15.05Z" fill="black"/>
<path d="M11.4302 19C10.8779 19 10.4302 19.4477 10.4302 20C10.4302 20.5523 10.8779 21 11.4302 21C11.9825 21 12.4302 20.5523 12.4302 20C12.4302 19.4477 11.9825 19 11.4302 19Z" fill="black"/>
<path d="M17.4302 19C16.8779 19 16.4302 19.4477 16.4302 20C16.4302 20.5523 16.8779 21 17.4302 21C17.9825 21 18.4302 20.5523 18.4302 20C18.4302 19.4477 17.9825 19 17.4302 19Z" fill="black"/>
</svg>
